<svg width="1440" height="242" viewBox="0 0 1440 242" fill="none" xmlns="http://www.w3.org/2000/svg">
<path d="M0 53.7778L24 58.2313C48 63.0208 96 71.4236 144 89.6576C192 107.556 240 134.444 288 129.991C336 125.201 384 89.9097 432 94.1111C480 98.3125 528 143.688 576 161.333C624 178.979 672 170.576 720 138.898C768 107.556 816 53.7778 864 67.2222C912 80.6667 960 161.333 1008 165.787C1056 170.576 1104 98.3125 1152 71.6757C1200 44.5347 1248 63.0208 1296 58.2313C1344 53.7778 1392 26.8889 1416 13.4444L1440 0V242H1416C1392 242 1344 242 1296 242C1248 242 1200 242 1152 242C1104 242 1056 242 1008 242C960 242 912 242 864 242C816 242 768 242 720 242C672 242 624 242 576 242C528 242 480 242 432 242C384 242 336 242 288 242C240 242 192 242 144 242C96 242 48 242 24 242H0V53.7778Z" fill="#146C94"/>
<path d="M0 32L24 43.6667C48 55.3333 96 78.6667 144 82.5313C192 86.6875 240 70.6458 288 82.5313C336 93.9792 384 133.354 432 156.469C480 180.021 528 187.313 576 183.667C624 180.021 672 163.979 720 152.531C768 140.646 816 133.354 864 113.667C912 93.9792 960 63.3542 1008 70.8646C1056 78.6667 1104 125.333 1152 137C1200 148.667 1248 125.333 1296 125.333C1344 125.333 1392 148.667 1416 160.333L1440 172V242H1416C1392 242 1344 242 1296 242C1248 242 1200 242 1152 242C1104 242 1056 242 1008 242C960 242 912 242 864 242C816 242 768 242 720 242C672 242 624 242 576 242C528 242 480 242 432 242C384 242 336 242 288 242C240 242 192 242 144 242C96 242 48 242 24 242H0V32Z" fill="#164863"/>
<path d="M0 143.402L24 151.619C48 159.835 96 176.268 144 168.052C192 159.835 240 126.969 288 124.247C336 121.32 384 149.051 432 151.619C480 154.186 528 132.618 576 118.753C624 104.887 672 99.752 720 105.041C768 110.536 816 126.969 864 132.464C912 137.753 960 132.618 1008 146.124C1056 159.835 1104 192.701 1152 192.701C1200 192.701 1248 159.835 1296 157.113C1344 154.186 1392 181.917 1416 195.423L1440 209.134V242H1416C1392 242 1344 242 1296 242C1248 242 1200 242 1152 242C1104 242 1056 242 1008 242C960 242 912 242 864 242C816 242 768 242 720 242C672 242 624 242 576 242C528 242 480 242 432 242C384 242 336 242 288 242C240 242 192 242 144 242C96 242 48 242 24 242H0V143.402Z" fill="#19A7CE"/>
</svg>
